Coordinates
version=1
nRows=19
nColumns=34
inDegrees=yes

Units are S.I. units (second, meters, Newtons, ...)
If the header above contains a line with 'inDegrees', this indicates whether rotational values are in degrees (yes) or radians (no).

endheader
time	pelvis_tilt	pelvis_list	pelvis_rotation	pelvis_tx	pelvis_ty	pelvis_tz	hip_flexion_r	hip_adduction_r	hip_rotation_r	knee_angle_r	ankle_angle_r	subtalar_angle_r	mtp_angle_r	hip_flexion_l	hip_adduction_l	hip_rotation_l	knee_angle_l	ankle_angle_l	subtalar_angle_l	mtp_angle_l	lumbar_extension	lumbar_bending	lumbar_rotation	arm_flex_r	arm_add_r	arm_rot_r	elbow_flex_r	pro_sup_r	arm_flex_l	arm_add_l	arm_rot_l	elbow_flex_l	pro_sup_l
      2.91666670	    -11.69251277	      0.18005582	     -4.76805862	      0.04626904	      1.15613224	     -0.09681464	     17.95353307	      2.66140319	      3.11716442	     29.15566724	     23.48537028	    -14.59511109	      0.00000000	     20.82057174	      1.58359529	     -2.06048905	     36.44489463	     15.09445859	    -23.84136387	      0.00000000	    -16.27737807	      2.17462248	      4.44298562	      6.20018659	    -14.79663009	     94.68002301	     16.42063431	     23.56944206	      3.19428473	    -17.14232671	     80.56345842	     23.57999586	     40.12632467
      2.93333330	    -12.19936376	      0.20250202	     -4.71533626	      0.05344721	      1.15061640	     -0.09600062	     19.81430251	      3.01436481	      4.08319413	     32.78008070	     25.05560869	    -16.33260396	      0.00000000	     22.93928740	      1.81747858	     -1.28124105	     40.32992983	     16.14697467	    -25.23821314	      0.00000000	    -16.61815019	      2.07022506	      4.41088039	      6.42419932	    -14.81322141	     95.55991772	     16.37531229	     23.33204767	      3.85122405	    -16.77340260	     81.28920244	     22.94935645	     40.45757609
      2.95000000	    -11.70605836	      0.14216777	     -4.65909200	      0.06266604	      1.14464304	     -0.09589732	     20.07452992	      3.32215779	      4.80156880	     35.89169513	     26.58726357	    -17.37218525	      0.00000000	     23.54232335	      2.12423847	     -0.52187769	     43.59723901	     17.19042494	    -26.00638141	      0.00000000	    -18.06057045	      1.97127851	      4.13610038	      7.04004501	    -14.76343921	     95.65754145	     16.22954001	     23.29597105	      4.74091882	    -16.48401683	     81.35262254	     22.72597778	     40.50781361
      2.96666670	    -11.31608794	      0.08673734	     -4.52711654	      0.07186887	      1.13835493	     -0.09632868	     20.23788437	      3.65892272	      5.51684359	     38.65408365	     28.06662394	    -18.40318080	      0.00000000	     24.01426482	      2.35011009	     -0.04130378	     46.53183052	     18.20129233	    -26.83993764	      0.00000000	    -19.02535648	      1.92419739	      3.63446315	      7.43215204	    -14.54754533	     95.77394885	     16.06361199	     23.27650152	      5.67510031	    -16.14610866	     81.48568039	     22.40342804	     40.58466254
      2.98333330	    -10.94233673	     -0.01586864	     -4.36573679	      0.08384898	      1.13089927	     -0.09666489	     20.04867952	      4.00197344	      6.15064677	     40.96103734	     29.50140184	    -19.30526911	      0.00000000	     24.09316908	      2.59109576	      0.47059882	     49.04896289	     19.25586974	    -27.57057321	      0.00000000	    -19.49005518	      1.90771927	      3.06266593	      7.73847189	    -14.28101049	     95.88717059	     15.82663891	     23.26190769	      6.46121127	    -15.75152648	     81.71437414	     22.01954979	     40.69190551
      3.00000000	    -10.51208821	     -0.18048589	     -4.22304556	      0.09573716	      1.12824805	     -0.09549743	     19.26218148	      4.37029111	      6.50835542	     42.36653387	     30.83005993	    -19.38821310	      0.00000000	     23.68858533	      2.68843784	      0.88672307	     50.71197518	     21.14146182	    -26.94461660	      0.00000000	    -19.66772567	      1.97505830	      2.67302558	      8.02798861	    -13.67290390	     97.81562622	     14.69638408	     23.04750432	      7.87700591	    -14.72769642	     86.13880060	     20.02548493	     42.34046855
      3.01666670	     -9.61880339	     -0.30494508	     -3.92504909	      0.10935809	      1.13141653	     -0.09614837	     17.09740112	      4.32489552	      6.28154073	     42.53266960	     30.70070906	    -19.67007668	      0.00000000	     22.11874215	      3.01807613	      1.50691211	     51.31417425	     21.81560299	    -26.50414741	      0.00000000	    -20.26630610	      2.05580386	      2.07027688	      8.55858438	    -13.32286575	     97.81078165	     14.39175849	     22.86051003	      8.86928713	    -14.19914940	     86.33444194	     19.58702445	     42.38092128
      3.03333330	     -8.50334347	     -0.16746390	     -3.72266354	      0.12604812	      1.13498813	     -0.09603513	     13.99258972	      3.97162391	      6.21530449	     41.37870066	     30.29367291	    -19.60805805	      0.00000000	     19.39665078	      3.48858028	      1.81758219	     50.50231739	     22.61794580	    -25.58288827	      0.00000000	    -20.74839722	      1.71822220	      1.77747387	      8.82792577	    -12.94414189	     97.87850447	     14.15980305	     22.70342589	      9.98584394	    -13.75652034	     86.48251880	     19.22223006	     42.47738440
      3.05000000	     -7.66064650	     -0.19213096	     -3.51887623	      0.13882957	      1.13892772	     -0.09619690	     10.88046159	      3.79617490	      6.20428744	     39.23789060	     29.44089811	    -19.03602700	      0.00000000	     16.67141434	      3.63552260	      1.99244233	     48.75307919	     22.74162414	    -24.88406818	      0.00000000	    -20.64212562	      1.61408109	      1.60426834	      9.07281989	    -12.67228054	     97.93898516	     14.14903691	     22.56563354	     10.99826569	    -13.47071926	     86.57077694	     19.21793984	     42.64716408
      3.06666670	     -7.40220652	     -0.05186178	     -3.41366188	      0.14996320	      1.14419621	     -0.09609652	      8.58484773	      3.40746157	      6.14312632	     36.79010830	     28.76107828	    -18.22410937	      0.00000000	     14.25408778	      3.90316242	      2.10873249	     46.27436864	     22.58054017	    -24.07358063	      0.00000000	    -19.79087137	      1.31108990	      1.50020774	      9.36467633	    -12.39008897	     97.91235213	     14.23935472	     22.46108076	     11.97963152	    -13.35568615	     86.45918672	     19.37064417	     42.82379631
      3.08333330	     -7.19305939	     -0.00769968	     -3.26649940	      0.16652868	      1.15872203	     -0.09526416	      5.62897277	      3.01391995	      5.90019930	     32.77374106	     26.74481501	    -17.50516904	      0.00000000	     11.20387705	      3.96932091	      2.21730320	     42.48979970	     20.69188264	    -23.50570498	      0.00000000	    -18.73783649	      1.14265157	      1.50487014	      9.45580582	    -12.13646558	     97.84616382	     14.35390223	     22.37207471	     12.66499410	    -13.38052383	     86.11082584	     19.61151677	     43.03179771
      3.10000000	     -7.44130966	      0.10974781	     -3.02984411	      0.18584521	      1.16905071	     -0.09552978	      2.76364031	      2.40317275	      5.09628892	     27.86685738	     24.23188306	    -15.98897106	      0.00000000	      8.18616982	      4.01492349	      2.23324821	     37.76301589	     17.78011431	    -22.91400696	      0.00000000	    -16.66887103	      1.02863016	      1.50711733	      9.02624973	    -11.96243504	     97.78629350	     14.55003047	     22.31583725	     12.87380969	    -13.47273834	     85.55325998	     20.07167373	     43.24345717
      3.11666670	     -8.24192016	      0.37905001	     -2.93878726	      0.20741315	      1.18542736	     -0.09493777	     -0.12904808	      1.60756616	      3.66149793	     22.21666155	     19.79396170	    -13.64674545	      0.00000000	      5.30686097	      4.08477282	      1.91126350	     32.32245875	     13.95865477	    -21.43430480	      0.00000000	    -13.56887851	      0.69908002	      1.52183389	      8.09454738	    -11.78331742	     97.78735329	     14.79703580	     22.29433261	     12.49975511	    -13.67903982	     84.83528851	     20.44889580	     43.40215542
      3.13333330	     -9.78920294	      0.69076239	     -2.99606450	      0.22433995	      1.19562947	     -0.09608191	     -1.74033384	      0.90407698	      1.98704315	     17.38763446	     15.25006302	    -11.29801468	      0.00000000	      3.51472602	      3.98396032	      0.71010950	     27.36693544	     10.04153986	    -19.32768835	      0.00000000	     -9.51473512	      0.46841989	      1.83216207	      6.93749570	    -11.74401177	     97.84509533	     15.08601466	     22.31472752	     11.80802189	    -13.85453902	     84.56103570	     20.84641555	     43.45585064
      3.15000000	    -11.13906865	      0.94903054	     -3.03640718	      0.24584149	      1.20792269	     -0.09710743	     -3.31592440	      0.18824722	     -0.91936422	     13.13733341	     10.67058388	     -6.99046105	      0.00000000	      1.67519612	      3.99945864	     -0.22896717	     22.80903864	      4.81677683	    -17.67737722	      0.00000000	     -5.65676654	      0.36022694	      2.02202448	      5.76056817	    -11.89665464	     97.59362327	     15.58094425	     22.28391205	     10.76015551	    -14.32651342	     82.81990608	     22.35403697	     43.60981052
      3.16666670	    -12.38087636	      1.18991494	     -3.17259889	      0.26403461	      1.21921772	     -0.09506745	     -4.17676874	     -0.14213750	     -2.66479496	     10.42429219	      5.68253822	     -4.71618073	      0.00000000	      0.71165211	      3.78548966	     -2.05071068	     19.55840456	     -0.28328472	    -15.19702422	      0.00000000	     -2.23340889	      0.22670207	      2.38886105	      4.69433401	    -11.91490562	     97.55932508	     15.82406100	     22.28998832	      9.70688924	    -14.66421340	     82.43082703	     22.76990898	     43.66356202
      3.18333330	    -13.86867573	      1.34293365	     -3.12789794	      0.28690796	      1.22691540	     -0.09624846	     -4.00671468	     -0.44538565	     -4.85381903	      9.31144974	      1.46512197	     -1.57388420	      0.00000000	      0.56320352	      3.54946514	     -3.29520259	     17.65244683	     -5.46762274	    -13.00360153	      0.00000000	      1.78327185	      0.35840091	      2.61257908	      3.17757523	    -12.14461784	     96.75633339	     16.36898641	     22.14587608	      7.92086422	    -15.65872538	     79.66989491	     25.03449047	     43.82994531
      3.20000000	    -13.87653138	      1.13767482	     -3.12998909	      0.30142547	      1.23276071	     -0.09643800	     -4.30320193	     -0.29901444	     -6.12035036	      9.73426579	     -5.18845359	     -2.47985560	      0.00000000	     -0.01830833	      3.01043881	     -4.15338246	     17.26378024	    -11.67238147	    -12.70186077	      0.00000000	      3.04467353	      0.75154046	      2.51280149	      2.69516921	    -12.52257739	     95.59930751	     16.68525119	     22.03322018	      6.62086682	    -16.43631233	     76.60528570	     26.49911873	     44.20849131
      3.21666670	    -13.04343796	      0.95403880	     -2.92816284	      0.31523954	      1.24205981	     -0.09612698	     -4.13819828	     -0.20811242	     -7.34269841	     11.98796632	    -10.30862158	     -4.48098588	      0.00000000	      0.12654553	      2.43949731	     -4.51308506	     18.73557282	    -17.73280666	    -13.72343564	      0.00000000	      2.92354918	      0.94542913	      2.23439780	      2.24346075	    -12.79559543	     94.44821662	     16.84294435	     21.95533305	      5.78430260	    -17.20200697	     74.38435396	     27.76833529	     44.63870402
